<svg xmlns="http://www.w3.org/2000/svg" xmlns:xlink="http://www.w3.org/1999/xlink" width="800" height="450" viewBox="0 0 211.66666 119.0625"><defs><linearGradient id="a"><stop offset="0" stop-color="#00bfff"/><stop offset="1" stop-color="#afeeee"/></linearGradient><linearGradient xlink:href="#a" id="b" x1="72.775" y1="102.261" x2="168.29" y2="16.803" gradientUnits="userSpaceOnUse" gradientTransform="matrix(.956 0 0 .943 2.892 2.674)"/></defs><g><path fill="url(#b)" d="M0 0h211.667v119.063h-211.667z"/><path d="M27.451 43.278l14.505 4.205-4.299 10.253-12.568-4.016z" fill="#d96060" fill-rule="evenodd" stroke="#000" stroke-width=".265"/></g><circle cx="183.507" cy="18.521" r="14.174" fill="#ffffe0" stroke="#ffd700" stroke-width="2.117" stroke-linecap="round" stroke-linejoin="round"/><g fill="#f1ffff" fill-rule="evenodd" stroke="#98f2ff" stroke-width="1.058" stroke-linejoin="round"><path d="M150.151 50.649l39.593.567c-5.506-2.546-10.747-7.053-16.914-4.725.768-1.5.452-3.443-2.834-2.567.288-5.809-4.864-1.993-5.293-2.064-4.57-5.901-5.998-1.116-8.032 1.606-3.585-2.539-4.125-1.104-2.457 3.213-5.315.603-5.57 2.126-4.063 3.969z"/><path d="M5.212 34.338c6.398 2.324 17.267.833 28.264.067-1.812-1.325-1.331-3.615-6.147-3.675 0 0 1.47-3.875-1.27-5.345-2.74-1.47-5.412 1.47-5.412 1.47s-2.873-4.811-7.016-3.809c-4.143 1.002-3.274 4.544-3.274 4.544s-4.209 0-5.078 2.071c-.869 2.071 1.604 2.071 1.604 2.071-.916.901-2.57 1.87-1.67 2.606z"/><path d="M55.101 19.39c4.953.457 22.899 2.079 33.781 0 4.307-4.059-5.53-4.141-8.524-6.147 0 0 3.875-3.074 1.737-4.944-2.138-1.871-6.548 1.737-6.548 1.737s2.539-5.212-.134-5.613c-2.673-.401-8.152 4.544-8.152 4.544s2.275-3.438-.535-3.475c-4.183-.054-14.1 13.561-11.626 13.898z"/><path d="M73.365 69.35c6.783-.189 13.642.695 20.312-1.069-2.016-.664-2.955-1.886-6.281-1.871 0 0 1.871-1.47.401-2.005-1.47-.535-4.944.935-4.944.935s3.341-2.806 1.069-3.207c-2.272-.401-8.018 4.143-8.018 4.143s-3.742-2.005-5.479-.267c-1.737 1.737 3.074 1.336 3.074 1.336s-2.94.401-3.341 1.336c-.401.935 3.207.668 3.207.668z"/></g><g><path d="M40.759 86.456c1.682-10.291 7.207-20.261 13.096-30.201-5.716-8.452-9.649-17.26-13.631-26.059-10.593 4.062-21.331 7.98-33.676 10.29-.04 12.656-3.099 24.977-6.281 37.284z" fill="#d96060" fill-rule="evenodd" stroke="#730000" stroke-width=".794" stroke-linejoin="round"/><path d="M4.209 41.287c12.098-1.925 24.095-5.783 36.015-11.092 3.821 9.662 8.274 19.175 15.101 28.13" stroke="#5b3337" stroke-width="2.117" stroke-linejoin="bevel" fill="none"/><path d="M11.15 79.092c2.35-6.649 3.69-13.452 4.63-20.316 8.884 1.265 16.197 3.912 23.34 6.709-2.755 6.174-5.604 12.347-6.804 18.521z" stroke="#730000" stroke-width="1.323" stroke-linejoin="round" fill="none"/><path d="M32.317 84.005l-16.536-25.23" stroke="#ffe9d5" stroke-width="1.852" stroke-linejoin="round" fill="none"/><path d="M11.15 79.092l27.97-13.607" stroke="#ffe9d5" stroke-width="1.852" fill="none"/><path d="M23.921 52.446c3.819 2.231 7.995 3.031 12.161 3.875.935-4.202 3.739-7.394 6.615-10.357-5.079-2.875-11.025-4.786-17.707-5.88-.482 3.244.293 6.661-1.069 12.361z" fill="#000001" fill-rule="evenodd" stroke="#ffe9d5" stroke-width="1.323" stroke-linejoin="round"/><path d="M25.214 49.059c4.677-2.843 5.928-.507 6.524 2.818 1.582-.974 3.23-1.558 5.279.267l-1.437 3.408c-4.086-.682-7.839-1.731-10.982-3.451z" fill="#e8ea00" fill-rule="evenodd"/></g><g fill="#3cb371" stroke="#2e8b57" stroke-width="1.323" stroke-linecap="round" stroke-linejoin="round"><path d="M142.025 118.063a77.241 39.69 0 0 1 77.241-39.69v39.69z"/><path d="M-69.642 117.307a77.241 39.69 0 0 1 77.241-39.69v39.69z" transform="scale(-1 1)"/></g><path d="M221.042-129.831a115.209 41.872 0 0 1-57.604 36.262 115.209 41.872 0 0 1-115.209 0 115.209 41.872 0 0 1-57.604-36.262" transform="scale(1 -1)" fill="#3cb371" stroke="#2e8b57" stroke-width="1.323" stroke-linecap="round" stroke-linejoin="round"/></svg>