<?xml version="1.0" encoding="UTF-8" standalone="no"?>
<svg
   xmlns:dc="http://purl.org/dc/elements/1.1/"
   xmlns:cc="http://creativecommons.org/ns#"
   xmlns:rdf="http://www.w3.org/1999/02/22-rdf-syntax-ns#"
   xmlns:svg="http://www.w3.org/2000/svg"
   xmlns="http://www.w3.org/2000/svg"
   xmlns:sodipodi="http://sodipodi.sourceforge.net/DTD/sodipodi-0.dtd"
   xmlns:inkscape="http://www.inkscape.org/namespaces/inkscape"
   width="100"
   height="100"
   version="1.1"
   id="svg60"
   sodipodi:docname="cowsold.svg"
   inkscape:version="0.92.2 (5c3e80d, 2017-08-06)">
  <metadata
     id="metadata66">
    <rdf:RDF>
      <cc:Work
         rdf:about="">
        <dc:format>image/svg+xml</dc:format>
        <dc:type
           rdf:resource="http://purl.org/dc/dcmitype/StillImage" />
        <dc:title></dc:title>
      </cc:Work>
    </rdf:RDF>
  </metadata>
  <defs
     id="defs64" />
  <sodipodi:namedview
     pagecolor="#ffffff"
     bordercolor="#666666"
     borderopacity="1"
     objecttolerance="10"
     gridtolerance="10"
     guidetolerance="10"
     inkscape:pageopacity="0"
     inkscape:pageshadow="2"
     inkscape:window-width="1920"
     inkscape:window-height="1017"
     id="namedview62"
     showgrid="false"
     inkscape:zoom="6.675088"
     inkscape:cx="27.037039"
     inkscape:cy="45.052857"
     inkscape:window-x="-8"
     inkscape:window-y="-8"
     inkscape:window-maximized="1"
     inkscape:current-layer="layer1"
     showguides="true"
     inkscape:guide-bbox="true" />
  <ellipse
     cx="54.669"
     cy="86.124"
     rx="38.095"
     ry="6.553"
     fill-opacity=".417"
     id="ellipse2" />
  <path
     d="M63.879 61.962h5.316c.478 6.261 1.118 12.353 0 18.502H63.88c.818-5.917.674-12.218 0-18.502zm-22.684 3.474h5.53c-1.033 4.357-.85 8.852 0 13.397h-5.53c-.775-4.066-.548-8.39 0-13.397z"
     fill="#f8f3e0"
     stroke="#000"
     stroke-width=".912"
     stroke-linejoin="round"
     id="path4" />
  <path
     d="M41.256 78.833h5.468s1.434 4.045.988 4.92c-.446.874-3.024.644-3.024.644l-.297-3.729-.05 3.82s-2.726.37-3.47-.045c-.744-.415.385-5.61.385-5.61zm22.623 1.63h5.316s-.425.39-.283 1.1c.141.708.921 3.969.531 4.43-.39.46-3.296.248-3.296.248l.071-4.076-.39 4.111s-2.8-.07-3.119-.638c-.319-.567 1.17-5.174 1.17-5.174z"
     fill="#b14217"
     fill-rule="evenodd"
     stroke="#000"
     stroke-width=".912"
     stroke-linejoin="round"
     id="path6" />
  <path
     d="M69.337 71.248s-2.162-.886-2.8.71c-.638 1.594.46 1.523.638 2.516.177.992-1.489 1.17-.886 2.552.602 1.382 2.694 1.984 2.694 1.984s.531-1.914.46-3.97a302.2 302.2 0 0 1-.106-3.792zm-27.948-3.912s1.331-.439 1.217.55c-.114.988.947.254 1.146 1.398.198 1.144-.821.922-.783 1.669.039.746.864.534.72 1.38-.143.844-.762 2.024-1.838 2.296-1.076.272-.848-.889-.848-.889z"
     fill="#52504a"
     fill-rule="evenodd"
     id="path8" />
  <g
     fill-rule="evenodd"
     id="g18">
    <path
       d="M58.846 63.983s14.673 6.096 19.99-3.332c5.316-9.428-25.377-1.205-19.99 3.332z"
       fill="#f1c6e3"
       stroke="#000"
       stroke-width=".9122373599999999"
       stroke-linejoin="round"
       id="path10" />
    <path
       d="M62.635 65.218l3.483.55-1.854 2.933s-.652 1.203-1.98.727c-1.103-.576-.777-1.604-.777-1.604z"
       fill="#f1c6e3"
       stroke="#000"
       stroke-width=".9122373599999999"
       stroke-linejoin="round"
       id="path12" />
    <path
       d="M69.627 65.87l3.007-.502 1.83 1.754s.752.777-.326 1.53c-1.077.75-2.155-.377-2.155-.377z"
       fill="#f1c6e3"
       stroke="#000"
       stroke-width=".9122373599999999"
       id="path14" />
    <path
       d="M70.304 62.862s.1 1.353 1.654 1.428c1.554.075 1.303-.902 1.303-.902s.376.3.877.1c.501-.2.953-1.328.953-1.328z"
       fill="#52504a"
       id="path16" />
  </g>
  <path
     d="M75.575 57.851h5.954c.81 8.405 1.058 17.32 0 23.605h-5.954c1.316-7.34.76-15.485 0-23.605z"
     fill="#f8f3e0"
     stroke="#000"
     stroke-width=".9122373599999999"
     stroke-linecap="round"
     stroke-linejoin="round"
     id="path20" />
  <path
     d="M30.066 62.104h5.104c-.825 6.276-1.242 12.483 0 17.65h-5.104c-1.378-5.753-.407-11.715 0-17.65z"
     fill="#f8f3e0"
     stroke="#000"
     stroke-width=".9122373599999999"
     stroke-linejoin="round"
     id="path22" />
  <path
     d="M35.17 79.755h-5.104s-.839 3.081-.688 4.585c.15 1.504 3.107.35 3.107.35l-.2-3.558.752 4.01s2.305-.25 2.756-.852c.452-.602-.623-4.535-.623-4.535zm46.36 1.701s.531 5.175.283 5.777c-.248.603-3.367.142-3.367.142l.213-4.36-.426 4.466s-3.828-.177-3.828-.85c0-.674 1.17-5.175 1.17-5.175z"
     fill="#b14217"
     fill-rule="evenodd"
     stroke="#000"
     stroke-width=".9122373599999999"
     stroke-linejoin="round"
     id="path24" />
  <path
     d="M81.776 66.747s-1.773 2.02-1.666 3.19c.106 1.17.815 1.666.709 2.34-.107.673-.78 1.24-.745 3.012.036 1.772-.531 2.48-.992 2.729-.46.248-2.127.035-2.446.85-.319.816-.425 2.127-.425 2.127l5.033.036s.744-6.805.638-8.294c-.106-1.489-.106-5.99-.106-5.99z"
     fill="#52504a"
     fill-rule="evenodd"
     id="path26" />
  <g
     id="g30">
    <path
       d="M85.466 30.507l.552 4.36s.952-.701 2.456 1.053c1.503 1.755 4.962 8.12 5.613 10.626.652 2.507 2.256 8.872 2.056 11.228-.2 2.356-.953 4.461-.401 6.316.55 1.854 2.756 4.812 2.756 4.812s-1.203-3.81-1.102-5.364c.1-1.553 1.203 4.762 1.203 4.762s.25-3.007-.301-5.012c-.551-2.005.752 2.606.752 2.606s.802-2.406.35-4.31c-.45-1.905-1.152-3.158-1.152-3.158s-.301-4.562-1.103-7.87-2.055-7.87-2.957-10.225c-.903-2.356-3.058-7.168-5.765-9.072-2.706-1.905-2.957-.752-2.957-.752z"
       fill="#f8f3e0"
       fill-rule="evenodd"
       stroke="#000"
       stroke-width=".9122373599999999"
       stroke-linejoin="round"
       id="path28" />
  </g>
  <g
     id="g38">
    <path
       d="M86.775 43.39c0 5.546.198 8.172-5.979 15.354-4.928 5.73-18.517 4.207-27.48 5.983-9.846 1.951-20.827 1.844-26.486-4.282-5.129-5.551-6.283-9.016-7.255-16.062-.5-3.623 9.115-21.37 23.275-20.741 6.098.27 7.54-3.29 15.712-2.864 10.224.532 12.498 3.847 20.674 2.58 7.47-1.157 7.539 14.486 7.539 20.032z"
       fill="#f8f3e0"
       stroke="#000"
       stroke-width=".9122373599999999"
       id="path32" />
    <path
       d="M36.996 35.92s2.406.1 3.409 1.203c1.002 1.103.802 2.105 1.704 2.306.902.2.551-.802.551-.802s-.2-1.704 1.554-1.554c1.755.15 2.757.802 3.308 1.704.552.902.602 3.008 1.604 3.459a8.772 8.772 0 0 1 2.908 2.105c.852.952.4 2.857 1.704 3.459 1.303.601 2.305 2.004 2.105 3.458-.2 1.454-.902 2.155-1.804 2.657-.903.5-2.306 0-2.707 1.203-.401 1.203.35 1.403.952 2.456.602 1.052.351 1.654-.1 1.954-.451.301-1.053.552-1.704.05-.652-.5-2.456-1.303-3.308-1.453-.853-.15-3.208-.752-3.81-1.253-.601-.501-1.804-3.258-2.656-3.96-.852-.702-2.356-1.303-4.01-1.002-1.654.3-4.862.752-5.915-.903-1.053-1.654-2.907-9.874.551-12.982 3.459-3.107 5.664-2.105 5.664-2.105z"
       fill="#52504a"
       fill-rule="evenodd"
       id="path34" />
    <path
       d="M41.762 65.383s-4.182-.124-7.23-1.01c-3.048-.887.337-1.542.337-1.542s2.357-.585-.674-.833c-3.03-.248-1.807-1.967-1.807-1.967s1.134-1.72.886-3.385c-.248-1.666-.993-2.534.372-3.598 1.365-1.063 3.792-.708 3.934.107.142.815-.337 2.87.744 3.367 1.081.496 3.12.124 3.208 1.719.089 1.595-1.63 2.463-1.205 3.916.425 1.453 1.134 1.24 1.33 2.003.194.762.105 1.223.105 1.223zM62.21 21.046s-1.304 1.253-1.103 3.057c.2 1.805 1.554 2.557 1.454 3.76-.1 1.203-2.857 3.007-3.258 4.31-.401 1.304-1.805 3.66 1.603 4.562 3.409.902 3.108.751 3.409 2.155.3 1.403 2.707 3.659 2.707 5.213 0 1.554-.552 5.714 3.91 6.666 4.46.953 4.06-3.709 4.861-5.463.802-1.755 3.058-2.657 3.71-4.16.651-1.504 1.654-3.46-.602-5.213-2.256-1.755-2.456-1.053-2.256-2.306.2-1.253 1.705-1.353 2.507-2.206.802-.852 2.506-2.055 4.11-2.004 1.604.05 1.904.4 1.904.4s-.902-2.857-1.303-3.508c-.4-.652-.15-.351-1.453-1.905-1.304-1.554-3.81-.601-5.113-.451-1.303.15-4.11 0-5.213-.35-1.103-.352-3.659-1.104-5.564-1.354-1.904-.25-4.31-1.203-4.31-1.203z"
       fill="#52504a"
       fill-rule="evenodd"
       id="path36" />
  </g>
  <g
     inkscape:groupmode="layer"
     id="layer1"
     inkscape:label="collar">
    <path
       style="fill:#da1616;fill-rule:evenodd;stroke:#000000;stroke-width:1px;stroke-linecap:butt;stroke-linejoin:round;stroke-opacity:1;fill-opacity:1"
       d="m 38.771186,23.940678 -3.230878,-0.05142 c 2.922917,24.041856 -7.035654,25.053001 -14.4598,27.275999 l 0.95339,2.86017 C 42.337624,49.112204 39.712608,35.014741 38.771186,23.940678 Z"
       id="path876"
       inkscape:connector-curvature="0"
       sodipodi:nodetypes="ccccc" />
    <path
       style="fill:none;fill-rule:evenodd;stroke:#000000;stroke-width:1px;stroke-linecap:butt;stroke-linejoin:miter;stroke-opacity:1"
       d="m 38.983051,25.105932 c 0,0 6.991525,-5.190678 8.580508,2.966102 1.588983,8.156779 8.050848,2.012712 8.050848,2.012712"
       id="path880"
       inkscape:connector-curvature="0" />
    <path
       style="fill:#f17c7e;fill-opacity:1;fill-rule:evenodd;stroke:#000000;stroke-width:1px;stroke-linecap:butt;stroke-linejoin:round;stroke-opacity:1"
       d="m 63.339794,41.858746 -7.725387,-11.774 11.774,-7.725387 29.3528,6.094455 -4.048612,19.499386 z"
       id="path896"
       inkscape:connector-curvature="0" />
    <g
       aria-label="SOLD"
       transform="matrix(0.87553821,0.19122286,-0.28683433,1.6352101,88.581052,-18.389904)"
       style="font-style:normal;font-weight:normal;font-size:13.33333302px;line-height:125%;font-family:sans-serif;letter-spacing:0px;word-spacing:0px;fill:#000000;fill-opacity:1;stroke:none;stroke-width:1px;stroke-linecap:butt;stroke-linejoin:miter;stroke-opacity:1"
       id="flowRoot923">
      <path
         sodipodi:type="inkscape:offset"
         inkscape:radius="0"
         inkscape:original="M -5.453125 27.707031 C -6.9157985 27.707031 -8.0386285 28.12717 -8.8242188 28.964844 C -9.6054688 29.798177 -9.9960938 31.005642 -9.9960938 32.589844 C -9.9960938 34.174045 -9.6054688 35.389973 -8.8242188 36.236328 C -8.0429688 37.082682 -6.9231771 37.505859 -5.4648438 37.505859 C -4.0065105 37.505859 -2.8867188 37.082682 -2.1054688 36.236328 C -1.3242188 35.389973 -0.93359375 34.179036 -0.93359375 32.603516 C -0.93359375 31.023655 -1.3226997 29.812717 -2.0996094 28.970703 C -2.8721788 28.128689 -3.9904514 27.707031 -5.453125 27.707031 z M -14.169922 27.720703 C -15.176867 27.720703 -15.966146 27.961589 -16.539062 28.443359 C -17.107638 28.92513 -17.392578 29.587673 -17.392578 30.429688 C -17.392578 30.876736 -17.306424 31.267361 -17.132812 31.601562 C -16.959202 31.935764 -16.726346 32.228733 -16.435547 32.480469 C -16.144748 32.732205 -15.70855 32.99414 -15.126953 33.267578 C -14.506294 33.562717 -14.096138 33.777561 -13.896484 33.912109 C -13.692492 34.046658 -13.53776 34.188368 -13.433594 34.335938 C -13.329427 34.479167 -13.277344 34.643446 -13.277344 34.830078 C -13.277344 35.164279 -13.398003 35.416667 -13.636719 35.585938 C -13.871093 35.755208 -14.209635 35.839844 -14.652344 35.839844 C -15.021267 35.839844 -15.427951 35.78125 -15.875 35.664062 C -16.317709 35.546875 -16.861546 35.345052 -17.503906 35.058594 L -17.503906 36.933594 C -16.722656 37.315538 -15.824218 37.505859 -14.808594 37.505859 C -13.706163 37.505859 -12.846788 37.258464 -12.230469 36.763672 C -11.609809 36.268881 -11.298828 35.591797 -11.298828 34.732422 C -11.298828 34.111763 -11.463107 33.58941 -11.792969 33.164062 C -12.12283 32.734375 -12.73329 32.306207 -13.623047 31.880859 C -14.29579 31.559679 -14.723959 31.338325 -14.90625 31.216797 C -15.084201 31.090929 -15.21441 30.962239 -15.296875 30.832031 C -15.37934 30.697483 -15.419922 30.541233 -15.419922 30.363281 C -15.419922 30.076823 -15.317275 29.84592 -15.113281 29.667969 C -14.909289 29.490017 -14.61632 29.400391 -14.234375 29.400391 C -13.913194 29.400391 -13.587673 29.440972 -13.257812 29.523438 C -12.923611 29.605903 -12.503906 29.752604 -11.996094 29.960938 L -11.34375 28.390625 C -11.834201 28.177951 -12.306423 28.013672 -12.757812 27.896484 C -13.20486 27.779297 -13.67513 27.720703 -14.169922 27.720703 z M 1.0507812 27.857422 L 1.0507812 37.375 L 6.9296875 37.375 L 6.9296875 35.708984 L 3.0703125 35.708984 L 3.0703125 27.857422 L 1.0507812 27.857422 z M 8.578125 27.857422 L 8.578125 37.375 L 11.273438 37.375 C 12.957465 37.375 14.243055 36.958333 15.132812 36.125 C 16.02691 35.291667 16.474609 34.092231 16.474609 32.525391 C 16.474609 31.054037 16.044922 29.908203 15.185547 29.087891 C 14.326172 28.267578 13.120226 27.857422 11.566406 27.857422 L 8.578125 27.857422 z M -5.453125 29.386719 C -3.8515625 29.386719 -3.0507812 30.459418 -3.0507812 32.603516 C -3.0507812 34.743272 -3.8546007 35.8125 -5.4648438 35.8125 C -6.2677952 35.8125 -6.8717448 35.544053 -7.2753906 35.005859 C -7.6790364 34.467665 -7.8808594 33.666884 -7.8808594 32.603516 C -7.8808594 31.540148 -7.6775173 30.739367 -7.2695312 30.201172 C -6.8615451 29.658637 -6.2560763 29.386719 -5.453125 29.386719 z M 10.595703 29.511719 L 11.669922 29.511719 C 13.475477 29.511719 14.378906 30.533854 14.378906 32.578125 C 14.378906 34.665799 13.405382 35.708984 11.460938 35.708984 L 10.595703 35.708984 L 10.595703 29.511719 z "
         style="font-style:normal;font-variant:normal;font-weight:bold;font-stretch:normal;font-family:'Open Sans';-inkscape-font-specification:'Open Sans Bold'"
         id="path951"
         d="m -5.453125,27.707031 c -1.4626735,0 -2.5855035,0.420139 -3.3710938,1.257813 -0.78125,0.833333 -1.171875,2.040798 -1.171875,3.625 0,1.584201 0.390625,2.800129 1.171875,3.646484 0.78125,0.846354 1.9010417,1.269531 3.359375,1.269531 1.4583333,0 2.578125,-0.423177 3.359375,-1.269531 0.78125,-0.846355 1.17187505,-2.057292 1.17187505,-3.632812 0,-1.579861 -0.38910595,-2.790799 -1.16601565,-3.632813 -0.7725694,-0.842014 -1.890842,-1.263672 -3.3535156,-1.263672 z m -8.716797,0.01367 c -1.006945,0 -1.796224,0.240886 -2.36914,0.722656 -0.568576,0.481771 -0.853516,1.144314 -0.853516,1.986329 0,0.447048 0.08615,0.837673 0.259766,1.171874 0.17361,0.334202 0.406466,0.627171 0.697265,0.878907 0.290799,0.251736 0.726997,0.513671 1.308594,0.787109 0.620659,0.295139 1.030815,0.509983 1.230469,0.644531 0.203992,0.134549 0.358724,0.276259 0.46289,0.423829 0.104167,0.143229 0.15625,0.307508 0.15625,0.49414 0,0.334201 -0.120659,0.586589 -0.359375,0.75586 -0.234374,0.16927 -0.572916,0.253906 -1.015625,0.253906 -0.368923,0 -0.775607,-0.05859 -1.222656,-0.175782 -0.442709,-0.117187 -0.986546,-0.31901 -1.628906,-0.605468 v 1.875 c 0.78125,0.381944 1.679688,0.572265 2.695312,0.572265 1.102431,0 1.961806,-0.247395 2.578125,-0.742187 0.62066,-0.494791 0.931641,-1.171875 0.931641,-2.03125 0,-0.620659 -0.164279,-1.143012 -0.494141,-1.56836 -0.329861,-0.429687 -0.940321,-0.857855 -1.830078,-1.283203 -0.672743,-0.32118 -1.100912,-0.542534 -1.283203,-0.664062 -0.177951,-0.125868 -0.30816,-0.254558 -0.390625,-0.384766 -0.08246,-0.134548 -0.123047,-0.290798 -0.123047,-0.46875 0,-0.286458 0.102647,-0.517361 0.306641,-0.695312 0.203992,-0.177952 0.496961,-0.267578 0.878906,-0.267578 0.321181,0 0.646702,0.04058 0.976563,0.123047 0.334201,0.08247 0.753906,0.229166 1.261718,0.4375 l 0.652344,-1.570313 c -0.490451,-0.212674 -0.962673,-0.376953 -1.414062,-0.494141 -0.447048,-0.117187 -0.917318,-0.175781 -1.41211,-0.175781 z M 1.0507812,27.857422 V 37.375 h 5.8789063 v -1.666016 h -3.859375 v -7.851562 z m 7.5273438,0 V 37.375 h 2.695313 c 1.684027,0 2.969617,-0.416667 3.859374,-1.25 0.894098,-0.833333 1.341797,-2.032769 1.341797,-3.599609 0,-1.471354 -0.429687,-2.617188 -1.289062,-3.4375 -0.859375,-0.820313 -2.065321,-1.230469 -3.619141,-1.230469 z m -14.03125,1.529297 c 1.6015625,0 2.4023438,1.072699 2.4023438,3.216797 0,2.139756 -0.8038195,3.208984 -2.4140626,3.208984 -0.8029514,0 -1.406901,-0.268447 -1.8105468,-0.806641 -0.4036458,-0.538194 -0.6054688,-1.338975 -0.6054688,-2.402343 0,-1.063368 0.2033421,-1.864149 0.6113282,-2.402344 0.4079861,-0.542535 1.0134549,-0.814453 1.8164062,-0.814453 z m 16.048828,0.125 h 1.074219 c 1.805555,0 2.708984,1.022135 2.708984,3.066406 0,2.087674 -0.973524,3.130859 -2.917968,3.130859 h -0.865235 z" />
    </g>
  </g>
  <g
     transform="translate(-1.549 5.094) scale(.03448)"
     id="g58">
    <path
       d="M58.145 723.9s141-36.34 184.609-97.391c43.608-61.052 46.516-82.856 50.876-114.836 4.361-31.98 94.902-94.869 94.902-94.869L357.59 671.571s-13.083 84.31-84.31 123.557c-71.227 39.248-123.558 10.175-155.537-8.722-31.98-18.897-59.598-62.505-59.598-62.505zm1295.172-109.02s-207.867-63.96-228.218-162.805c-20.35-98.846-98.265-63.023-98.265-63.023l73.554 220.013s30.526 91.578 127.918 91.578c97.392 0 125.01-85.763 125.01-85.763z"
       id="path40"
       stroke-linejoin="round"
       stroke-width="26.457"
       stroke="#000"
       fill-rule="evenodd"
       fill="#f8f3e0" />
    <path
       d="M1026.834 389.052s66.285-53.267 72.1-115.772c5.814-62.506-23.258-175.888-23.258-175.888s139.547 97.393 120.65 225.31c-18.897 127.919-120.65 222.404-120.65 222.404zM382.301 430.27s-78.495-61.051-87.217-162.805c-8.722-101.753 31.98-155.537 31.98-155.537S199.145 236.94 219.496 376.487c20.35 139.547 145.362 215.135 145.362 215.135z"
       id="path42"
       stroke-linejoin="round"
       stroke-width="26.457"
       stroke="#000"
       fill-rule="evenodd"
       fill="#f6cf85" />
    <path
       d="M388.532 416.804S499.54 333.548 716.42 337.66c216.879 4.111 310.414 51.393 310.414 51.393s101.758 223.046 93.535 427.59c-8.222 204.545-55.504 289.858-105.87 364.892-50.364 75.034-137.733 122.315-241.547 145.956-103.814 23.64-203.516-18.501-262.105-67.839-58.588-49.337-160.346-108.953-167.541-353.584-7.195-244.631 45.226-489.263 45.226-489.263z"
       id="path44"
       stroke-linejoin="round"
       stroke-width="26.457"
       stroke="#000"
       fill-rule="evenodd"
       fill="#f8f3e0" />
    <path
       d="M832.195 355.59s.727 37.794-48.696 82.129c-49.423 44.335-93.031 39.248-57.418 101.026 35.614 61.779 22.531 66.14 17.444 71.954-5.088 5.815-28.346 34.16-115.563-42.881-87.217-77.042-79.949 45.789-83.583 65.412-3.634 19.624 1.454 55.238-66.14 69.047-67.592 13.81-111.928-47.242-111.928-47.242 5.624-77.855 17.409-154.478 32.707-230.399-.918-1.835 151.434-107.051 433.177-69.046z"
       id="path46"
       fill-rule="evenodd"
       fill="#52504a" />
    <path
       id="ellipse48"
       sodipodi:type="arc"
       sodipodi:cx="-577.92993"
       sodipodi:cy="623.90802"
       sodipodi:rx="49.109001"
       sodipodi:ry="78.953003"
       sodipodi:start="0"
       sodipodi:end="4.1342188"
       d="m -528.82093,623.90802 a 49.109001,78.953003 0 0 1 -39.70303,77.49129 49.109001,78.953003 0 0 1 -54.91187,-47.80708 49.109001,78.953003 0 0 1 18.6682,-95.80451"
       style="fill:#f8ffff;stroke:#000000;stroke-width:30.69499969;stroke-linecap:round;stroke-linejoin:round"
       sodipodi:open="true"
       transform="scale(-1,1)" />
    <path
       transform="rotate(9.1)"
       id="ellipse50"
       sodipodi:type="arc"
       sodipodi:cx="1001.832"
       sodipodi:cy="475.86899"
       sodipodi:rx="49.967999"
       sodipodi:ry="79.041"
       sodipodi:start="0"
       sodipodi:end="4.0465354"
       d="m 1051.8,475.86899 a 49.967999,79.041 0 0 1 -38.9684,77.10211 49.967999,79.041 0 0 1 -56.12486,-43.15662 49.967999,79.041 0 0 1 14.25847,-96.10253"
       style="fill:#f8ffff;stroke:#000000;stroke-width:30.45299911;stroke-linecap:round;stroke-linejoin:round"
       sodipodi:open="true" />
    <path
       d="M357.696 1024.27s95.591-159.318 352.557-188.098c256.965-28.78 399.838 77.09 399.838 77.09s-11.307 319.665-305.275 409.089c-293.969 89.424-429.646-231.27-429.646-231.27z"
       id="path52"
       stroke-linejoin="round"
       stroke-width="26.457"
       stroke="#000"
       fill-rule="evenodd"
       fill="#f1c6e3" />
    <ellipse
       ry="62.869"
       rx="54.874"
       cy="1002.632"
       cx="623.965"
       id="ellipse54"
       stroke-linejoin="round"
       stroke-linecap="round"
       stroke-width="26.457"
       stroke="#000"
       fill="none" />
    <ellipse
       cx="1134.38"
       cy="588.213"
       rx="54.118"
       ry="69.018"
       transform="rotate(22.148)"
       id="ellipse56"
       stroke-linejoin="round"
       stroke-linecap="round"
       stroke-width="26.514"
       stroke="#000"
       fill="none" />
    <path
       style="fill:none;fill-rule:evenodd;stroke:#000000;stroke-width:29.00231934px;stroke-linecap:butt;stroke-linejoin:round;stroke-opacity:1"
       d="m 962.77617,635.46135 -69.4636,-73.39048 z"
       id="path939"
       inkscape:connector-curvature="0"
       sodipodi:nodetypes="ccc" />
    <path
       style="fill:none;fill-rule:evenodd;stroke:#000000;stroke-width:29.00231934px;stroke-linecap:butt;stroke-linejoin:round;stroke-opacity:1"
       d="M 604.76763,557.78773 527.204,621.34057 Z"
       id="path943"
       inkscape:connector-curvature="0" />
  </g>
</svg>
