<?xml version="1.0" encoding="UTF-8" standalone="no"?>
<!-- Created with Inkscape (http://www.inkscape.org/) -->

<svg
   xmlns:dc="http://purl.org/dc/elements/1.1/"
   xmlns:cc="http://creativecommons.org/ns#"
   xmlns:rdf="http://www.w3.org/1999/02/22-rdf-syntax-ns#"
   xmlns:svg="http://www.w3.org/2000/svg"
   xmlns="http://www.w3.org/2000/svg"
   xmlns:sodipodi="http://sodipodi.sourceforge.net/DTD/sodipodi-0.dtd"
   xmlns:inkscape="http://www.inkscape.org/namespaces/inkscape"
   width="360"
   height="70"
   viewBox="0 0 95.249998 18.520834"
   version="1.1"
   id="svg8"
   inkscape:version="0.92.2 (5c3e80d, 2017-08-06)"
   sodipodi:docname="grass6.svg">
  <defs
     id="defs2" />
  <sodipodi:namedview
     id="base"
     pagecolor="#ffffff"
     bordercolor="#666666"
     borderopacity="1.0"
     inkscape:pageopacity="0.0"
     inkscape:pageshadow="2"
     inkscape:zoom="2.8"
     inkscape:cx="155.41162"
     inkscape:cy="64.095947"
     inkscape:document-units="mm"
     inkscape:current-layer="layer1"
     showgrid="false"
     units="px"
     inkscape:window-width="1920"
     inkscape:window-height="1017"
     inkscape:window-x="-8"
     inkscape:window-y="-8"
     inkscape:window-maximized="1" />
  <metadata
     id="metadata5">
    <rdf:RDF>
      <cc:Work
         rdf:about="">
        <dc:format>image/svg+xml</dc:format>
        <dc:type
           rdf:resource="http://purl.org/dc/dcmitype/StillImage" />
        <dc:title></dc:title>
      </cc:Work>
    </rdf:RDF>
  </metadata>
  <g
     inkscape:label="Layer 1"
     inkscape:groupmode="layer"
     id="layer1"
     transform="translate(0,-278.47915)">
    <path
       style="fill:#6fbc5f;fill-rule:evenodd;stroke:#678b3c;stroke-width:0.5291667;stroke-linecap:butt;stroke-linejoin:round;stroke-miterlimit:4;stroke-dasharray:none;stroke-opacity:1;fill-opacity:1"
       d="m -1.3229166,295.2046 h 2.6458332 c -0.65692292,-4.28332 0.9663212,-8.35935 2.1733632,-12.47322 -0.2968592,4.09474 -0.4873097,8.18949 0.094494,12.28423 0.6342012,-2.20319 1.6198222,-3.61569 1.6063986,-7.27604 0.8989374,2.48471 1.4201214,4.87499 1.6063989,7.18154 0.9849192,-4.64414 1.5011983,-9.67881 1.4174108,-15.21354 1.381474,5.32317 2.0470089,10.64633 2.3623509,15.9695 0.239077,-1.60205 -0.05903,-1.89951 2.551339,-9.26042 0.217876,2.52245 -0.15852,5.63918 0.850447,7.37054 -0.329962,-3.72502 0.761886,-8.16095 1.417411,-12.37872 0.30493,2.56564 0.764516,5.23438 0.566964,7.46503 0.643627,-0.67662 1.221308,-1.58405 1.511905,-3.49628 0.917941,2.01362 1.939496,3.97544 2.173363,6.3311 0.700933,-1.44293 1.435149,-2.8609 2.834821,-3.77977 l 2.551339,5.57515 c -0.0063,-2.49779 0.960348,-4.75235 1.6064,-7.08705 0.223037,2.80332 0.494344,5.60665 1.41741,8.40997 0.843738,-3.22621 1.2943,-7.23878 1.606399,-11.52827 0.314307,1.89257 0.572608,4.00916 1.228421,4.53571 1.12928,3.39835 1.985169,-5.96848 2.740329,-9.07143 0.153007,4.13757 -0.852297,3.06273 1.228421,15.875 1.206658,-2.25048 1.451175,-4.66133 1.606399,-7.08705 0.386499,1.78971 0.961334,3.45385 0.850448,5.57515 0.765412,-0.85045 1.594402,-1.70089 1.322916,-2.55134 1.259698,1.70089 1.485715,3.40179 1.700893,5.10268 0.0644,-0.91274 0.180246,-1.79976 0.944941,-2.36235 l 0.566965,1.22842 c 1.524426,-2.31205 2.439416,-5.36896 2.36235,-9.63839 1.013827,2.2592 2.11431,4.48374 2.267858,7.08705 0.185119,-1.38131 0.919182,-2.67113 2.173362,-3.87426 l -0.188987,2.17337 1.606396,-2.74033 c -0.458984,2.15988 -0.709488,4.11128 -0.283479,5.38616 1.950165,-3.11538 1.895173,-6.9827 2.551337,-10.58333 0.170116,4.35144 0.108654,8.76078 0.944941,12.94568 0.830857,-4.90893 0.57506,-10.25251 0.566965,-15.49702 1.217788,5.16745 2.381983,10.34382 2.55134,15.68601 0.0041,-2.34745 0.126662,-5.16835 0.661458,-9.63839 0.498607,3.55235 2.358826,6.19696 4.441219,8.69345 -0.389878,-3.26494 0.60419,-6.87587 1.606399,-10.48884 0.09494,2.92293 -0.243848,5.9326 0.661459,8.69345 1.515549,-3.31484 1.955143,-9.05058 2.83482,-13.79613 0.04544,5.59271 -0.119468,11.39575 0.94494,15.96949 0.752369,-3.12189 1.41017,-6.33834 1.984375,-9.63839 0.04526,2.64981 0.09412,5.29243 0.661459,6.89807 1.239266,-2.60892 1.187013,-5.86359 1.417412,-8.97694 1.559058,4.57765 2.991535,9.07091 3.496279,12.94569 -0.167221,-2.56005 0.126795,-5.30459 0.850447,-8.22099 0.296054,1.52705 0.290494,3.29538 1.41741,4.15774 1.322555,-1.99082 1.372779,-4.49057 1.889882,-6.80357 0.240907,0.40151 1.61118,8.20136 1.606399,8.50447 -0.01575,0.99869 2.430398,-8.13101 2.078868,-8.69346 0.937342,3.54479 1.545482,7.14446 1.41741,10.86682 0.399055,-3.66555 2.283967,-6.77391 4.063243,-9.92188 -0.326321,2.73493 -0.697536,5.50193 0.18899,7.37054 -0.137209,-2.45124 1.018451,-5.54891 1.889881,-8.50446 0.100023,1.62888 -0.174968,3.36809 0.850445,4.7247 l 0.283483,-1.51191 1.511906,3.77976 0.188986,-6.14211 c 0.762966,3.1353 1.751402,6.23839 1.322917,9.5439 h 3.023809 v 3.68527 H -1.3229166 Z"
       id="path817"
       inkscape:connector-curvature="0"
       sodipodi:nodetypes="cccccccccccccccccccccccccccccccccccccccccccccccccccscccccccccccccc" />
  </g>
</svg>
